<svg xmlns="http://www.w3.org/2000/svg" width="140" height="111" viewBox="0 0 140 111"><g transform="translate(-377 -3209.063)"><path d="M387.008,102.257a12.235,12.235,0,0,1,7.429,2.518l1.384,1.133,2.645-3.1-1.426-1.176a16.14,16.14,0,0,0-10.032-3.443,16.363,16.363,0,0,0-11.207,4.449,15.422,15.422,0,0,0-4.661,10.872,15.08,15.08,0,0,0,4.661,10.83,16.094,16.094,0,0,0,11.207,4.534,16.774,16.774,0,0,0,9.9-3.358l1.427-1.176-2.645-3.192-1.384,1.133a11.639,11.639,0,0,1-7.3,2.479,11.928,11.928,0,0,1-8.312-3.273,11.138,11.138,0,0,1-3.443-7.977,10.9,10.9,0,0,1,3.443-7.934A11.892,11.892,0,0,1,387.008,102.257Z" transform="translate(5.86 3190.817)" fill="#fff"/><path d="M379.64,128.458h4.283l4.407-9.866h9.4l4.407,9.866h4.28L393.03,98.067Zm10.409-13.767,2.98-6.885c.925,2.055,2.182,5.162,2.98,6.885Z" transform="translate(27.322 3190.514)" fill="#fff"/><path d="M405.647,110.344H392.425v-12h-4.072v29.424h4.072v-13.39h13.221v13.39h4.114V98.341h-4.114Z" transform="translate(49.327 3191.207)" fill="#fff"/><path d="M395.546,128.458h4.283l4.407-9.866h9.4l4.407,9.866h4.28l-13.39-30.391Zm10.409-13.767,2.98-6.885c.925,2.055,2.182,5.162,2.98,6.885Z" transform="translate(67.481 3190.514)" fill="#fff"/><path d="M423.44,99.035v19.851c-4.823-5.247-19.18-20.819-19.18-20.819v30.391h4.071V108.812c4.827,5.247,19.18,20.738,19.18,20.738V99.035Z" transform="translate(89.489 3190.514)" fill="#fff"/><path d="M394.591,90.913a22.064,22.064,0,0,0,2.952.254,19.067,19.067,0,0,0,7.655-1.43,18.816,18.816,0,0,0,5.353-3.383,23.1,23.1,0,0,1-1.917-2.242,15.96,15.96,0,0,1-4.566,2.9,16.26,16.26,0,0,1-6.776,1.2,19.2,19.2,0,0,1-3.061-.357,24.338,24.338,0,0,1-6.511-2.323c.625-.756,1.285-1.49,2-2.2s1.433-1.363,2.193-1.991a25.4,25.4,0,0,1,1.953,4.929,18.284,18.284,0,0,0,3.146.445,27.95,27.95,0,0,0-2.7-7.157c-.459-.858-.96-1.709-1.511-2.549-.816.544-1.61,1.133-2.384,1.751a33.231,33.231,0,0,0-5.275,5.268c-.621.773-1.208,1.571-1.751,2.383q1.266.826,2.549,1.518A27.233,27.233,0,0,0,394.591,90.913Z" transform="translate(36.764 3137.754)" fill="#e1251b"/><path d="M410.288,98.764a25.578,25.578,0,0,1-1.924-4.876,18.285,18.285,0,0,0-3.146-.445,28.083,28.083,0,0,0,2.662,7.083q.683,1.287,1.5,2.553c.823-.537,1.621-1.116,2.4-1.73a31.75,31.75,0,0,0,2.8-2.482,34.849,34.849,0,0,0,2.475-2.758c.625-.773,1.218-1.561,1.769-2.376q-1.266-.826-2.556-1.515a27.16,27.16,0,0,0-8.637-2.977,22.062,22.062,0,0,0-2.952-.254,19.067,19.067,0,0,0-7.655,1.43,18.778,18.778,0,0,0-5.342,3.372,22.7,22.7,0,0,1,1.914,2.249,15.916,15.916,0,0,1,4.559-2.892,16.159,16.159,0,0,1,6.776-1.2,19.207,19.207,0,0,1,3.061.357,24.42,24.42,0,0,1,6.476,2.306q-.932,1.123-1.977,2.168A28.094,28.094,0,0,1,410.288,98.764Z" transform="translate(57.727 3167.805)" fill="#e1251b"/><path d="M394.23,87.148a21.585,21.585,0,0,0,1.917,2.267,19.034,19.034,0,0,0,6.416,4.4,18.75,18.75,0,0,0,6.162,1.388,22.514,22.514,0,0,1,.237-2.938,15.948,15.948,0,0,1-5.268-1.179,16.2,16.2,0,0,1-5.639-3.941,19.143,19.143,0,0,1-1.91-2.419,24.307,24.307,0,0,1-2.962-6.243,30.441,30.441,0,0,1,5.922,0,25.081,25.081,0,0,1-2.1,4.859,18.411,18.411,0,0,0,1.914,2.542,28.085,28.085,0,0,0,3.153-6.974q.419-1.4.727-2.871c-.967-.194-1.942-.339-2.924-.448a33.948,33.948,0,0,0-7.454,0q-1.462.164-2.92.456c.2.982.452,1.939.734,2.867A27.115,27.115,0,0,0,394.23,87.148Z" transform="translate(52.21 3133.672)" fill="#e1251b"/><path d="M398.654,97.055a18.652,18.652,0,0,1,1.91,2.419,24.2,24.2,0,0,1,2.927,6.137,30.64,30.64,0,0,1-5.858.025,25.2,25.2,0,0,1,2.076-4.777,17.915,17.915,0,0,0-1.914-2.542,28.073,28.073,0,0,0-3.132,6.907q-.424,1.4-.738,2.885c.968.187,1.946.328,2.927.434a33.818,33.818,0,0,0,7.415-.039q1.467-.169,2.924-.466c-.208-.982-.459-1.939-.745-2.867a27.07,27.07,0,0,0-3.969-8.114,21.228,21.228,0,0,0-1.917-2.267,19.033,19.033,0,0,0-6.416-4.4A18.751,18.751,0,0,0,387.984,89a22.5,22.5,0,0,1-.237,2.938,15.929,15.929,0,0,1,5.268,1.179A16.2,16.2,0,0,1,398.654,97.055Z" transform="translate(47.796 3167.821)" fill="#e1251b"/><path d="M401.166,89.772a19.078,19.078,0,0,0-4.407,6.416,18.747,18.747,0,0,0-1.384,6.162,23.072,23.072,0,0,1,2.934.237,15.95,15.95,0,0,1,1.179-5.268,16.283,16.283,0,0,1,3.941-5.635,19.266,19.266,0,0,1,2.422-1.914,24.354,24.354,0,0,1,6.264-2.97q.143,1.494.145,3.016c0,.982-.049,1.956-.141,2.924a25.307,25.307,0,0,1-4.891-2.115,18.439,18.439,0,0,0-2.539,1.914,28.1,28.1,0,0,0,7,3.16q1.4.418,2.878.731c.191-.964.335-1.942.445-2.927a35.348,35.348,0,0,0,.2-3.686A34.406,34.406,0,0,0,415,86.036c-.109-.982-.251-1.96-.445-2.92q-1.472.307-2.871.731a27.027,27.027,0,0,0-8.252,4.011A21.2,21.2,0,0,0,401.166,89.772Z" transform="translate(67.058 3153.062)" fill="#e1251b"/><path d="M382.424,100.839c.985-.2,1.942-.452,2.878-.734a27.119,27.119,0,0,0,8.227-4,22,22,0,0,0,2.267-1.914,19.123,19.123,0,0,0,4.4-6.416,18.848,18.848,0,0,0,1.388-6.162,23.086,23.086,0,0,1-2.938-.24,16.013,16.013,0,0,1-1.179,5.268,16.216,16.216,0,0,1-3.941,5.639,19.49,19.49,0,0,1-2.419,1.914,24.309,24.309,0,0,1-6.236,2.959,31.257,31.257,0,0,1,0-5.918,25.143,25.143,0,0,1,4.855,2.1,18.443,18.443,0,0,0,2.539-1.914,28.01,28.01,0,0,0-6.97-3.153c-.932-.279-1.893-.526-2.878-.731-.191.968-.343,1.946-.448,2.924a34.183,34.183,0,0,0,0,7.457C382.082,98.9,382.23,99.871,382.424,100.839Z" transform="translate(32.699 3148.677)" fill="#e1251b"/><path d="M392.733,85.3a23.212,23.212,0,0,1-2.253,1.91,16,16,0,0,1,2.9,4.569,16.272,16.272,0,0,1,1.2,6.776,19.176,19.176,0,0,1-.36,3.061,24.17,24.17,0,0,1-2.309,6.486c-.77-.632-1.515-1.3-2.228-2.013-.692-.7-1.342-1.416-1.956-2.157a25.168,25.168,0,0,1,4.908-1.942,17.971,17.971,0,0,0,.445-3.15,28.218,28.218,0,0,0-7.147,2.7c-.858.463-1.709.964-2.553,1.515.547.812,1.13,1.607,1.755,2.383a33.678,33.678,0,0,0,2.458,2.74,34.292,34.292,0,0,0,2.814,2.521q1.165.927,2.391,1.741c.551-.84,1.052-1.691,1.511-2.546a27.17,27.17,0,0,0,2.977-8.633,21.478,21.478,0,0,0,.251-2.952A18.728,18.728,0,0,0,392.733,85.3Z" transform="translate(36.78 3158.531)" fill="#e1251b"/><path d="M400.174,104.158a22.737,22.737,0,0,1,2.249-1.91,15.886,15.886,0,0,1-2.9-4.573,16.188,16.188,0,0,1-1.2-6.772,19.172,19.172,0,0,1,.36-3.061,24.366,24.366,0,0,1,2.313-6.5c.766.632,1.508,1.3,2.217,2.009q1.043,1.043,1.974,2.168a25.362,25.362,0,0,1-4.919,1.946,17.967,17.967,0,0,0-.445,3.146,28.039,28.039,0,0,0,7.157-2.7c.858-.463,1.709-.964,2.549-1.511-.547-.819-1.137-1.61-1.758-2.38a34.277,34.277,0,0,0-2.468-2.758,34.741,34.741,0,0,0-2.8-2.511c-.773-.621-1.571-1.2-2.387-1.744-.547.837-1.052,1.688-1.511,2.542a27.18,27.18,0,0,0-2.984,8.647,21.488,21.488,0,0,0-.251,2.952,19.081,19.081,0,0,0,1.426,7.659A18.85,18.85,0,0,0,400.174,104.158Z" transform="translate(67.032 3137.766)" fill="#e1251b"/></g></svg>