<svg xmlns="http://www.w3.org/2000/svg" width="46.903" height="87.957" viewBox="0 0 46.903 87.957"><g transform="translate(-99 -1445.556)"><rect width="7.107" height="20.088" transform="translate(126.674 1519.309) rotate(-45)" fill="#fff"/><path d="M38.581,20.113a8.3,8.3,0,0,0,8.291-8.291,8.185,8.185,0,0,0-.971-3.79l-6.4,6.4-3.53-3.53,6.4-6.4a8.185,8.185,0,0,0-3.79-.971,8.3,8.3,0,0,0-8.291,8.291,8.079,8.079,0,0,0,.5,2.748l-4.382,4.382-4.217-4.217,1.682-1.682-3.34-3.34,5.022-5.022a7.106,7.106,0,0,0-10.044,0L7.122,13.077l3.34,3.34H3.782L2.1,18.1l8.386,8.386L12.168,24.8V18.1l3.34,3.34,1.682-1.682,4.217,4.217L3.853,41.528,8.875,46.55,35.833,19.615A8.079,8.079,0,0,0,38.581,20.113Z" transform="translate(96.9 1486.943)" fill="#fff"/><g transform="translate(0 -44)"><rect width="7.107" height="20.088" transform="translate(126.674 1519.309) rotate(-45)" fill="#e1251b"/><path d="M38.581,20.113a8.3,8.3,0,0,0,8.291-8.291,8.185,8.185,0,0,0-.971-3.79l-6.4,6.4-3.53-3.53,6.4-6.4a8.185,8.185,0,0,0-3.79-.971,8.3,8.3,0,0,0-8.291,8.291,8.079,8.079,0,0,0,.5,2.748l-4.382,4.382-4.217-4.217,1.682-1.682-3.34-3.34,5.022-5.022a7.106,7.106,0,0,0-10.044,0L7.122,13.077l3.34,3.34H3.782L2.1,18.1l8.386,8.386L12.168,24.8V18.1l3.34,3.34,1.682-1.682,4.217,4.217L3.853,41.528,8.875,46.55,35.833,19.615A8.079,8.079,0,0,0,38.581,20.113Z" transform="translate(96.9 1486.943)" fill="#e1251b"/></g></g></svg>